<!DOCTYPE svg PUBLIC "-//W3C//DTD SVG 1.1//EN" "http://www.w3.org/Graphics/SVG/1.1/DTD/svg11.dtd">
<!-- Uploaded to: SVG Repo, www.svgrepo.com, Transformed by: SVG Repo Mixer Tools -->
<svg fill="#B0C4DE" height="107px" width="107px" version="1.2" baseProfile="tiny" id="_x31__1_" xmlns="http://www.w3.org/2000/svg" xmlns:xlink="http://www.w3.org/1999/xlink" viewBox="-63 65 128 128" xml:space="preserve" stroke="#B0C4DE" stroke-width="0.384">
<g id="SVGRepo_bgCarrier" stroke-width="0"/>
<g id="SVGRepo_tracerCarrier" stroke-linecap="round" stroke-linejoin="round"/>
<g id="SVGRepo_iconCarrier"> <path d="M60.5,185.6v-47.8H21V130h-2.8v-7.3h-2.3v-10.8h2.6v-5.2h-2.6v-2.3c0-8.3-5.6-15.3-12.9-16.6v-8.3H1.7V69.2H-1v10.4h-1.3 v8.3c-7.4,1.3-12.9,8.3-12.9,16.6v2.3h-2.6v5.2h2.6v10.8h-2.3v7.2h-2.8v7.8h-38.3v47.9h-4.5v7.8H65v-7.8L60.5,185.6L60.5,185.6z M11.9,111.9v10.8H9.3v-10.8H11.9z M6.8,111.9v10.8H4.2v-10.8H6.8z M1.6,111.9v10.8H-1v-10.8H1.6z M-3.6,111.9v10.8h-2.6v-10.8H-3.6 z M-11.4,111.9h2.6v10.8h-2.6V111.9z M-41.8,185.6h-6.5v-24.5h6.5V185.6z M-41.8,155.9h-6.5v-10.4h6.5V155.9z M-30.1,185.6h-6.5 v-24.5h6.5V185.6z M-30.1,155.9h-6.5v-10.4h6.5V155.9z M-19.8,185.6h-6.5v-24.5h6.5V185.6z M-19.8,155.9h-6.5v-10.4h6.5V155.9z M-8.1,185.6h-6.5v-24.5h6.5V185.6z M-8.1,155.9h-6.5v-10.4h6.5V155.9z M3.5,185.6H-3v-24.5h6.5V185.6z M3.5,155.9H-3v-10.4h6.5 V155.9z M15.2,185.6H8.7v-24.5h6.5V185.6z M15.2,155.9H8.7v-10.4h6.5V155.9z M26.8,185.6h-6.5v-24.5h6.5V185.6z M26.8,155.9h-6.5 v-10.4h6.5V155.9z M38.5,185.6H32v-24.5h6.5V185.6z M38.5,155.9H32v-10.4h6.5V155.9z M50.1,185.6h-6.5v-24.5h6.5V185.6z M50.1,155.9 h-6.5v-10.4h6.5V155.9z"/> </g>
</svg>